<?xml version="1.0" encoding="UTF-8"?>
<!DOCTYPE svg PUBLIC "-//W3C//DTD SVG 1.1//EN" "http://www.w3.org/Graphics/SVG/1.1/DTD/svg11.dtd">
<svg xmlns="http://www.w3.org/2000/svg" version="1.1" width="30" height="87" viewBox="0 0 30 87">
    <g>
        <path fill="#AD28EB" d="M15 3.313A12.187 12.187 0 1 0 27.188 15.5 12.203 12.203 0 0 0 15 3.312Zm4.688 13.124h-3.75v3.75a.938.938 0 0 1-1.876 0v-3.75h-3.75a.938.938 0 0 1 0-1.875h3.75v-3.75a.938.938 0 0 1 1.876 0v3.75h3.75a.938.938 0 0 1 0 1.876Z"/>
    </g>
    <g transform="translate(0,31)">
        <path fill="#301534" d="M15 3.313A12.187 12.187 0 1 0 27.188 15.5 12.2 12.2 0 0 0 15 3.312Zm4.688 13.124h-9.375a.938.938 0 0 1 0-1.875h9.374a.938.938 0 0 1 0 1.876Z"/>
    </g>
    <g transform="translate(0,62)">
        <path d="M22.5 12.5C22.5024 12.8076 22.4089 13.1083 22.2324 13.3604C22.056 13.6124 21.8055 13.8032 21.5156 13.9062L15.5681 16.0691L13.4062 22.0156C13.2997 22.3027 13.1078 22.5503 12.8565 22.7251C12.6051 22.8999 12.3062 22.9936 12 22.9936C11.6938 22.9936 11.3949 22.8999 11.1435 22.7251C10.8922 22.5503 10.7003 22.3027 10.5937 22.0156L8.43093 16.0625L2.48437 13.9062C2.1973 13.7997 1.94972 13.6078 1.77489 13.3565C1.60006 13.1051 1.50635 12.8062 1.50635 12.5C1.50635 12.1938 1.60006 11.8949 1.77489 11.6435C1.94972 11.3922 2.1973 11.2003 2.48437 11.0937L8.4375 8.93093L10.5937 2.98437C10.7003 2.6973 10.8922 2.44972 11.1435 2.27489C11.3949 2.10006 11.6938 2.00635 12 2.00635C12.3062 2.00635 12.6051 2.10006 12.8565 2.27489C13.1078 2.44972 13.2997 2.6973 13.4062 2.98437L15.5691 8.9375L21.5156 11.0937C21.8055 11.1968 22.056 11.3876 22.2324 11.6396C22.4089 11.8916 22.5024 12.1924 22.5 12.5Z" fill="#AD28EB"/>
    </g>
</svg>
